<svg width="1892" height="475" viewBox="0 0 1892 475" fill="none" xmlns="http://www.w3.org/2000/svg">
<path d="M1885.81 31.9685C1888.5 32.6237 1891.2 30.9803 1891.86 28.2977C1892.51 25.6152 1890.87 22.9093 1888.19 22.2541L1885.81 31.9685ZM1 335.611C0.594246 340.595 0.595269 340.595 0.597707 340.595C0.60041 340.595 0.604264 340.596 0.609664 340.596C0.620462 340.597 0.636912 340.598 0.65899 340.6C0.703146 340.604 0.769813 340.609 0.858802 340.617C1.03678 340.631 1.30405 340.654 1.65909 340.683C2.36917 340.743 3.43034 340.833 4.83049 340.955C7.63079 341.197 11.787 341.565 17.2021 342.066C28.0324 343.066 43.8983 344.596 64.0245 346.71C104.278 350.939 161.568 357.507 229.695 366.86C365.969 385.57 545.512 415.414 718.755 459.954L721.245 450.269C547.488 405.597 367.531 375.691 231.055 356.953C162.807 347.583 105.41 341.003 65.0693 336.765C44.8986 334.646 28.991 333.112 18.1221 332.108C12.6876 331.606 8.51276 331.236 5.69441 330.992C4.28524 330.87 3.21518 330.779 2.49637 330.718C2.13696 330.688 1.86536 330.666 1.68309 330.651C1.59195 330.643 1.52315 330.637 1.47686 330.634C1.45372 330.632 1.43621 330.63 1.42435 330.629C1.41842 330.629 1.41377 330.628 1.4108 330.628C1.40757 330.628 1.40575 330.628 1 335.611ZM718.755 459.954C806.388 482.484 880.318 477.787 944.938 455.929C1009.48 434.098 1064.43 395.252 1114.3 349.955C1164.11 304.716 1209.18 252.717 1253.62 204.636C1298.19 156.403 1342.16 112.069 1390.2 81.3225L1384.8 72.9001C1335.59 104.404 1290.87 149.596 1246.27 197.849C1201.54 246.254 1156.96 297.702 1107.58 342.552C1058.26 387.343 1004.49 425.229 941.734 446.457C879.057 467.657 807.112 472.345 721.245 450.269L718.755 459.954ZM1390.2 81.3225C1486.17 19.887 1609.82 7.36952 1710.04 10.4215C1760.06 11.9448 1804.04 17.3395 1835.52 22.3537C1851.25 24.8603 1863.85 27.2702 1872.51 29.0507C1876.83 29.9409 1880.17 30.6736 1882.43 31.1822C1883.55 31.4364 1884.41 31.6347 1884.97 31.7685C1885.26 31.8354 1885.47 31.8862 1885.61 31.9199C1885.68 31.9368 1885.73 31.9493 1885.77 31.9574C1885.78 31.9615 1885.8 31.9645 1885.8 31.9663C1885.81 31.9673 1885.81 31.9678 1885.81 31.9683C1885.81 31.9685 1885.81 31.9685 1887 27.1113C1888.19 22.2541 1888.18 22.2535 1888.18 22.2526C1888.18 22.252 1888.17 22.2508 1888.17 22.2495C1888.16 22.2468 1888.14 22.243 1888.12 22.2381C1888.08 22.2283 1888.02 22.2141 1887.94 22.1956C1887.79 22.1586 1887.56 22.1045 1887.26 22.0343C1886.67 21.8938 1885.78 21.6888 1884.63 21.4279C1882.32 20.9059 1878.92 20.1596 1874.52 19.2559C1865.74 17.4485 1852.99 15.0108 1837.09 12.4782C1805.3 7.41428 1760.88 1.9653 1710.34 0.426111C1609.43 -2.64693 1483.33 9.83561 1384.8 72.9001L1390.2 81.3225Z" fill="#33A755"/>
</svg>
